<?xml version="1.0" standalone="no"?>
<!DOCTYPE svg PUBLIC "-//W3C//DTD SVG 20010904//EN"
 "http://www.w3.org/TR/2001/REC-SVG-20010904/DTD/svg10.dtd">
<svg version="1.0" xmlns="http://www.w3.org/2000/svg"
 width="600.000000pt" height="600.000000pt" viewBox="0 0 600.000000 600.000000"
 preserveAspectRatio="xMidYMid meet">
<metadata>
Created by potrace 1.14, written by Peter Selinger 2001-2017
</metadata>
<g transform="translate(0.000000,600.000000) scale(0.100000,-0.100000)"
fill="#000000" stroke="none">
<path d="M2960 5680 c-19 -19 -20 -33 -20 -284 0 -262 0 -265 22 -280 32 -22
64 -20 82 6 14 19 16 63 16 280 0 245 -1 259 -20 278 -11 11 -29 20 -40 20
-11 0 -29 -9 -40 -20z"/>
<path d="M5002 5039 c-13 -5 -104 -90 -202 -190 -129 -130 -180 -188 -180
-204 0 -31 46 -68 73 -59 25 8 387 371 387 387 -1 51 -37 81 -78 66z"/>
<path d="M978 5003 c-26 -31 -27 -50 -5 -81 36 -48 356 -362 369 -362 53 1 88
43 67 82 -6 11 -92 101 -191 199 -185 185 -207 200 -240 162z"/>
<path d="M2859 4855 c-3 -2 -29 -6 -58 -10 -30 -3 -57 -8 -60 -9 -3 -2 -22 -7
-41 -10 -20 -3 -77 -19 -128 -35 -481 -157 -861 -573 -1006 -1098 -13 -48 -27
-104 -30 -123 -3 -19 -8 -44 -10 -55 -30 -156 -28 -465 3 -632 66 -347 234
-670 467 -898 77 -75 95 -118 103 -244 4 -63 13 -115 22 -129 34 -54 10 -53
891 -50 795 3 814 3 840 23 37 27 40 35 48 156 10 129 23 157 119 259 40 41
99 111 132 155 32 44 63 85 67 90 28 37 113 199 147 280 40 96 94 282 109 375
29 179 29 415 2 612 -16 114 -84 330 -146 462 -27 58 -107 198 -132 231 -140
187 -238 286 -390 394 -181 127 -360 201 -598 246 -39 8 -345 16 -351 10z"/>
<path d="M675 3097 c-8 -13 -14 -34 -12 -47 7 -47 23 -50 299 -50 245 0 259 1
278 20 11 11 20 29 20 40 0 11 -9 29 -20 40 -19 19 -33 20 -285 20 l-265 0
-15 -23z"/>
<path d="M4760 3100 c-27 -27 -26 -65 2 -84 19 -14 63 -16 280 -16 245 0 259
1 278 20 27 27 26 65 -2 84 -19 14 -63 16 -280 16 -245 0 -259 -1 -278 -20z"/>
<path d="M2126 1385 c-34 -31 -34 -73 -1 -109 l24 -26 856 2 856 3 19 25 c28
36 25 76 -6 105 l-27 25 -847 0 -847 0 -27 -25z"/>
<path d="M2125 1075 c-33 -32 -33 -78 0 -111 l24 -24 857 2 856 3 20 25 c25
31 19 87 -13 113 -20 16 -76 17 -871 17 l-849 0 -24 -25z"/>
<path d="M2146 768 c-37 -33 -40 -71 -9 -108 l25 -30 833 0 833 0 30 25 c20
17 28 32 27 49 -5 44 -15 63 -41 74 -18 9 -249 12 -849 12 l-824 0 -25 -22z"/>
<path d="M2441 469 c-51 -20 -68 -83 -31 -117 47 -44 71 -46 565 -49 419 -2
477 0 536 15 76 20 99 39 99 79 0 33 -7 43 -40 66 -22 15 -73 17 -565 16 -321
0 -550 -4 -564 -10z"/>
</g>
</svg>
