<svg width="100" height="100" viewBox="0 0 100 100" fill="none" xmlns="http://www.w3.org/2000/svg">
<mask id="path-1-inside-1" fill="white">
<path fill-rule="evenodd" clip-rule="evenodd" d="M63 74C64.1046 74 64.9848 73.1012 65.1191 72.0048C65.3902 69.7902 66.1479 67.6191 67.6287 65.9992C72.1816 61.0185 75 54.1213 75 46.5C75 31.3122 63.8071 19 50 19C36.1929 19 25 31.3122 25 46.5C25 54.1213 27.8184 61.0185 32.3713 65.9992C33.8521 67.6191 34.6098 69.7902 34.8809 72.0048C35.0152 73.1012 35.8954 74 37 74H63ZM36.5 76C35.6716 76 35 76.6716 35 77.5V77.5C35 78.3284 35.6716 79 36.5 79H63.5C64.3284 79 65 78.3284 65 77.5V77.5C65 76.6716 64.3284 76 63.5 76H36.5ZM35 83V83C35 81.8954 35.8954 81 37 81H63C64.1046 81 65 81.8954 65 83V83V83C65 83.5657 64.5235 84 63.9578 84H36.0422C35.4765 84 35 83.5657 35 83V83ZM37.61 89C36.9883 89 36.4082 88.6796 36.1428 88.1174V88.1174C35.6568 87.0883 36.4867 86 37.6248 86H62.3752C63.5133 86 64.3432 87.0883 63.8572 88.1174V88.1174C63.5918 88.6796 63.0117 89 62.39 89H37.61ZM42.5297 91C40.8008 91 40.0407 92.929 41.5829 93.7106C43.2102 94.5353 45.0508 95 47 95H53C54.9492 95 56.7898 94.5353 58.4171 93.7106C59.9593 92.929 59.1992 91 57.4703 91H42.5297Z"/>
</mask>
<path fill-rule="evenodd" clip-rule="evenodd" d="M63 74C64.1046 74 64.9848 73.1012 65.1191 72.0048C65.3902 69.7902 66.1479 67.6191 67.6287 65.9992C72.1816 61.0185 75 54.1213 75 46.5C75 31.3122 63.8071 19 50 19C36.1929 19 25 31.3122 25 46.5C25 54.1213 27.8184 61.0185 32.3713 65.9992C33.8521 67.6191 34.6098 69.7902 34.8809 72.0048C35.0152 73.1012 35.8954 74 37 74H63ZM36.5 76C35.6716 76 35 76.6716 35 77.5V77.5C35 78.3284 35.6716 79 36.5 79H63.5C64.3284 79 65 78.3284 65 77.5V77.5C65 76.6716 64.3284 76 63.5 76H36.5ZM35 83V83C35 81.8954 35.8954 81 37 81H63C64.1046 81 65 81.8954 65 83V83V83C65 83.5657 64.5235 84 63.9578 84H36.0422C35.4765 84 35 83.5657 35 83V83ZM37.61 89C36.9883 89 36.4082 88.6796 36.1428 88.1174V88.1174C35.6568 87.0883 36.4867 86 37.6248 86H62.3752C63.5133 86 64.3432 87.0883 63.8572 88.1174V88.1174C63.5918 88.6796 63.0117 89 62.39 89H37.61ZM42.5297 91C40.8008 91 40.0407 92.929 41.5829 93.7106C43.2102 94.5353 45.0508 95 47 95H53C54.9492 95 56.7898 94.5353 58.4171 93.7106C59.9593 92.929 59.1992 91 57.4703 91H42.5297Z" fill="white"/>
<path d="M67.6287 65.9992L66.1525 64.6498L66.1525 64.6498L67.6287 65.9992ZM32.3713 65.9992L33.8475 64.6498L33.8475 64.6498L32.3713 65.9992ZM41.5829 93.7106L40.6788 95.4946L41.5829 93.7106ZM65.1191 72.0048L63.1339 71.7617L65.1191 72.0048ZM66.1525 64.6498C64.3025 66.6736 63.4368 69.2875 63.1339 71.7617L67.1042 72.2478C67.3436 70.2929 67.9933 68.5646 69.1049 67.3486L66.1525 64.6498ZM73 46.5C73 53.6272 70.3648 60.0416 66.1525 64.6498L69.1049 67.3486C73.9983 61.9953 77 54.6153 77 46.5H73ZM50 21C62.5274 21 73 32.2331 73 46.5H77C77 30.3912 65.0868 17 50 17V21ZM27 46.5C27 32.2331 37.4726 21 50 21V17C34.9132 17 23 30.3912 23 46.5H27ZM33.8475 64.6498C29.6352 60.0416 27 53.6272 27 46.5H23C23 54.6153 26.0017 61.9953 30.8951 67.3486L33.8475 64.6498ZM36.8661 71.7617C36.5632 69.2876 35.6975 66.6736 33.8475 64.6498L30.8951 67.3486C32.0067 68.5646 32.6564 70.2929 32.8958 72.2478L36.8661 71.7617ZM63 72H37V76H63V72ZM63.5 77H36.5V81H63.5V77ZM36.5 78H63.5V74H36.5V78ZM63 79H37V83H63V79ZM36.0422 86H63.9578V82H36.0422V86ZM62.3752 84H37.6248V88H62.3752V84ZM37.61 91H62.39V87H37.61V91ZM40.6788 95.4946C42.5799 96.458 44.7296 97 47 97V93C45.3721 93 43.8405 92.6125 42.487 91.9266L40.6788 95.4946ZM47 97H53V93H47V97ZM53 97C55.2704 97 57.4201 96.458 59.3212 95.4946L57.513 91.9266C56.1595 92.6125 54.6279 93 53 93V97ZM57.4703 89H42.5297V93H57.4703V89ZM42.487 91.9266C42.4666 91.9163 42.6002 91.9845 42.6889 92.202C42.7746 92.4119 42.7572 92.6153 42.7066 92.7528C42.606 93.0263 42.43 93 42.5297 93V89C40.9005 89 39.48 89.9382 38.9526 91.3717C38.6887 92.0891 38.6624 92.9213 38.9852 93.7127C39.3111 94.5117 39.928 95.1141 40.6788 95.4946L42.487 91.9266ZM62.0487 87.2635C62.0977 87.1597 62.1744 87.0861 62.244 87.0452C62.3087 87.0072 62.3605 87 62.39 87V91C63.6766 91 65.0259 90.3267 65.6658 88.9714L62.0487 87.2635ZM62.3752 88C62.2987 88 62.1884 87.9609 62.1031 87.8427C62.0584 87.7808 62.0158 87.6893 62.0028 87.572C61.9891 87.4479 62.0138 87.3375 62.0487 87.2635L65.6658 88.9714C66.9032 86.3506 64.6761 84 62.3752 84V88ZM34.3342 88.9714C34.9741 90.3267 36.3234 91 37.61 91V87C37.6395 87 37.6913 87.0072 37.756 87.0452C37.8256 87.0861 37.9023 87.1597 37.9513 87.2635L34.3342 88.9714ZM36.0422 82C36.4717 82 37 82.355 37 83H33C33 84.7765 34.4812 86 36.0422 86V82ZM63 83C63 82.355 63.5283 82 63.9578 82V86C65.5188 86 67 84.7765 67 83H63ZM63 83H63H67C67 80.7909 65.2091 79 63 79V83ZM37 83H37V79C34.7909 79 33 80.7909 33 83H37ZM67 77.5C67 75.567 65.433 74 63.5 74V78C63.2239 78 63 77.7761 63 77.5H67ZM63.5 81C65.433 81 67 79.433 67 77.5H63C63 77.2239 63.2239 77 63.5 77V81ZM37 77.5C37 77.7761 36.7761 78 36.5 78V74C34.567 74 33 75.567 33 77.5H37ZM33 77.5C33 79.433 34.567 81 36.5 81V77C36.7761 77 37 77.2239 37 77.5H33ZM37.9513 87.2635C37.9863 87.3375 38.0109 87.4479 37.9972 87.572C37.9842 87.6893 37.9416 87.7808 37.8969 87.8427C37.8116 87.9609 37.7013 88 37.6248 88V84C35.3239 84 33.0968 86.3506 34.3342 88.9714L37.9513 87.2635ZM32.8958 72.2478C33.1337 74.1914 34.7353 76 37 76V72C36.9987 72 37.0008 72.0004 37.0003 72.0002C36.9979 71.9991 36.9847 71.993 36.9653 71.9743C36.9221 71.9326 36.8778 71.8568 36.8661 71.7617L32.8958 72.2478ZM59.3212 95.4946C60.072 95.1141 60.6889 94.5117 61.0148 93.7127C61.3376 92.9213 61.3113 92.0891 61.0474 91.3717C60.52 89.9382 59.0995 89 57.4703 89V93C57.57 93 57.394 93.0263 57.2934 92.7528C57.2428 92.6153 57.2254 92.4119 57.3111 92.202C57.3998 91.9845 57.5334 91.9163 57.513 91.9266L59.3212 95.4946ZM63.1339 71.7617C63.1222 71.8568 63.0779 71.9326 63.0347 71.9743C63.0153 71.993 63.0021 71.9991 62.9997 72.0002C62.9992 72.0004 63.0013 72 63 72V76C65.2647 76 66.8663 74.1914 67.1042 72.2478L63.1339 71.7617Z" fill="black" mask="url(#path-1-inside-1)"/>
<path d="M44 50L47.4023 58.8639C47.7974 59.8932 48 60.9864 48 62.089V72" stroke="black" stroke-linecap="round" stroke-linejoin="round"/>
<path d="M56 50L52.5977 58.8639C52.2026 59.8932 52 60.9864 52 62.089V72" stroke="black" stroke-linecap="round" stroke-linejoin="round"/>
<path d="M49.0859 40.5703C49.0859 40.3672 49.1016 40.25 49.1328 40.2188C49.1641 40.1875 49.1641 40.1406 49.1328 40.0781C49.1953 39.9219 49.2266 39.8359 49.2266 39.8203C49.2109 39.6484 49.2109 39.5469 49.2266 39.5156C49.2578 39.4688 49.2812 39.4297 49.2969 39.3984C49.3281 39.1797 49.3594 39.0391 49.3906 38.9766C49.4375 38.9141 49.4531 38.8438 49.4375 38.7656C49.5156 38.5938 49.5391 38.5078 49.5078 38.5078C49.4766 38.5078 49.4688 38.4688 49.4844 38.3906C49.625 38.25 49.7031 38.1719 49.7188 38.1562C49.7344 38.125 49.75 38.0859 49.7656 38.0391L49.7891 37.6641C49.7734 37.6328 49.75 37.6016 49.7188 37.5703C49.7031 37.5234 49.6797 37.4688 49.6484 37.4062C49.5859 37.2344 49.5469 37.1406 49.5312 37.125C49.5156 37.0938 49.5156 37.0547 49.5312 37.0078C49.4844 36.9609 49.4531 36.8984 49.4375 36.8203C49.4219 36.7266 49.3828 36.6641 49.3203 36.6328C49.3203 36.5078 49.2891 36.4141 49.2266 36.3516C49.1797 36.2891 49.1484 36.2031 49.1328 36.0938C49.0703 36.0625 49.0312 36.0156 49.0156 35.9531C49 35.875 48.9609 35.8203 48.8984 35.7891C48.8984 35.7109 48.875 35.6484 48.8281 35.6016C48.7969 35.5391 48.7656 35.4688 48.7344 35.3906C48.6562 35.2812 48.6016 35.2109 48.5703 35.1797C48.4609 35.0078 48.3828 34.9219 48.3359 34.9219C48.3047 34.8438 48.2578 34.7812 48.1953 34.7344C48.1328 34.6875 48.0859 34.6172 48.0547 34.5234C47.9453 34.4453 47.8672 34.3594 47.8203 34.2656C47.7109 34.2031 47.6406 34.1719 47.6094 34.1719C47.5938 34.1562 47.5859 34.1328 47.5859 34.1016C47.4609 34.0234 47.375 33.9766 47.3281 33.9609C47.2969 33.9453 47.2734 33.9141 47.2578 33.8672C47.1172 33.8516 47.0469 33.8359 47.0469 33.8203C47.0469 33.8047 47.0312 33.7891 47 33.7734C46.8594 33.7266 46.7812 33.6875 46.7656 33.6562C46.4062 33.5625 46.0469 33.5781 45.6875 33.7031C45.5156 33.7812 45.4297 33.8359 45.4297 33.8672C45.4297 33.8984 45.4141 33.9297 45.3828 33.9609C45.2266 34.0391 45.1484 34.0938 45.1484 34.125C45.1641 34.1562 45.1562 34.1797 45.125 34.1953C45.0625 34.3359 45.0234 34.4219 45.0078 34.4531C44.9922 34.4844 44.9766 34.5234 44.9609 34.5703C44.8672 34.7266 44.8203 34.8125 44.8203 34.8281C44.8359 34.8438 44.8359 34.8672 44.8203 34.8984C44.8047 34.9453 44.7891 35.0078 44.7734 35.0859C44.7734 35.1484 44.7578 35.2109 44.7266 35.2734C44.7422 35.3828 44.7422 35.4453 44.7266 35.4609C44.7109 35.4766 44.6875 35.5078 44.6562 35.5547C44.625 35.6328 44.6094 35.7109 44.6094 35.7891C44.625 35.8672 44.6094 35.9297 44.5625 35.9766C44.5938 36.0234 44.6016 36.0781 44.5859 36.1406C44.5859 36.2031 44.6016 36.25 44.6328 36.2812C44.6016 36.3125 44.5781 36.3594 44.5625 36.4219C44.5625 36.4688 44.5547 36.5312 44.5391 36.6094C44.5234 36.7812 44.5234 36.9062 44.5391 36.9844C44.5703 37.0469 44.5859 37.1172 44.5859 37.1953C44.5859 37.2422 44.5781 37.2891 44.5625 37.3359C44.5625 37.3672 44.5625 37.4062 44.5625 37.4531C44.5781 37.5156 44.5938 37.5703 44.6094 37.6172C44.625 37.6484 44.6406 37.6875 44.6562 37.7344C44.6562 37.9688 44.6953 38.1328 44.7734 38.2266C44.7422 38.3047 44.7266 38.375 44.7266 38.4375C44.7422 38.4844 44.7344 38.5391 44.7031 38.6016C44.75 38.6797 44.7656 38.75 44.75 38.8125C44.75 38.875 44.7578 38.9453 44.7734 39.0234C44.7734 39.0547 44.7812 39.0938 44.7969 39.1406C44.8125 39.1875 44.8281 39.2344 44.8438 39.2812C44.8906 39.4688 44.9062 39.5781 44.8906 39.6094C44.8906 39.625 44.8906 39.6484 44.8906 39.6797C44.8906 39.7266 44.8906 39.7812 44.8906 39.8438C44.9062 39.9062 44.9141 39.9609 44.9141 40.0078C44.9609 40.2266 44.9766 40.3672 44.9609 40.4297C44.9609 40.4922 44.9688 40.5625 44.9844 40.6406C45.0312 40.75 45.0469 40.8203 45.0312 40.8516C45.0312 40.8828 45.0391 40.9141 45.0547 40.9453C45.0547 41.0078 45.0625 41.0703 45.0781 41.1328C45.1094 41.1953 45.1172 41.2656 45.1016 41.3438C45.1797 41.4688 45.2188 41.5781 45.2188 41.6719C45.2969 41.9062 45.3359 42.0703 45.3359 42.1641C45.3359 42.2578 45.3516 42.3594 45.3828 42.4688C45.4297 42.5781 45.4453 42.6562 45.4297 42.7031C45.4297 42.7344 45.4375 42.7656 45.4531 42.7969C45.4688 42.8438 45.4844 42.8984 45.5 42.9609C45.5312 43.0078 45.5469 43.0703 45.5469 43.1484C45.5781 43.3359 45.5938 43.4297 45.5938 43.4297L45.6875 43.7109C45.7344 43.8359 45.75 43.9141 45.7344 43.9453C45.7344 43.9766 45.7422 44.0234 45.7578 44.0859C45.8047 44.2891 45.8281 44.4375 45.8281 44.5312C45.9219 44.75 45.9688 44.9219 45.9688 45.0469C45.9688 45.1562 46 45.2734 46.0625 45.3984C46.0781 45.6016 46.1016 45.7734 46.1328 45.9141C46.1641 46.0391 46.1641 46.1562 46.1328 46.2656C46.1953 46.375 46.2188 46.4375 46.2031 46.4531C46.1875 46.4688 46.1875 46.4922 46.2031 46.5234C46.2656 46.7266 46.2969 46.8594 46.2969 46.9219C46.2969 46.9844 46.2969 47.0547 46.2969 47.1328C46.2969 47.2109 46.2969 47.2891 46.2969 47.3672C46.3125 47.4297 46.3203 47.4922 46.3203 47.5547C46.3359 47.7422 46.3516 47.8516 46.3672 47.8828C46.3516 48.0234 46.3438 48.1094 46.3438 48.1406C46.3594 48.1719 46.3672 48.2031 46.3672 48.2344C46.3672 48.2812 46.3516 48.3359 46.3203 48.3984C46.3047 48.4453 46.3125 48.5078 46.3438 48.5859C46.2969 48.6484 46.2656 48.7109 46.25 48.7734C46.2344 48.8359 46.2188 48.8984 46.2031 48.9609C46.2031 49.0547 46.1953 49.1172 46.1797 49.1484C46.1641 49.1797 46.1484 49.2109 46.1328 49.2422C46.0859 49.4297 46.0625 49.5391 46.0625 49.5703C45.9844 49.7578 45.9219 49.8828 45.875 49.9453C45.8438 49.9922 45.8359 50.0703 45.8516 50.1797C45.7578 50.3203 45.6953 50.4219 45.6641 50.4844C45.6328 50.5469 45.6016 50.6094 45.5703 50.6719C45.4922 50.7656 45.4297 50.8438 45.3828 50.9062C45.3359 50.9688 45.2734 51.0156 45.1953 51.0469L45.0781 51.2812C44.9062 51.3906 44.7969 51.4766 44.75 51.5391C44.7188 51.6172 44.6406 51.6562 44.5156 51.6562C44.4688 51.6875 44.4219 51.7188 44.375 51.75C44.3281 51.7812 44.2656 51.8125 44.1875 51.8438C44.125 51.875 44.0625 51.8984 44 51.9141C43.9375 51.9297 43.8672 51.9531 43.7891 51.9844C43.6641 52 43.5859 52.0078 43.5547 52.0078C43.5391 52.0078 43.5156 52.0234 43.4844 52.0547C43.3594 52.0234 43.2266 52.0234 43.0859 52.0547C43.0234 52.0703 42.9609 52.0703 42.8984 52.0547C42.8516 52.0547 42.8125 52.0781 42.7812 52.125C42.5938 52.0781 42.4609 52.0547 42.3828 52.0547C42.3203 52.0547 42.25 52.0391 42.1719 52.0078C42.0312 51.8516 41.9219 51.7656 41.8438 51.75C41.7656 51.6875 41.7188 51.6406 41.7031 51.6094C41.6875 51.5781 41.6484 51.5625 41.5859 51.5625C41.3828 51.3438 41.2422 51.1875 41.1641 51.0938C41.1172 50.9531 41.0859 50.8438 41.0703 50.7656C41.0547 50.6875 41.0234 50.625 40.9766 50.5781C40.9766 50.4531 40.9844 50.3594 41 50.2969V50.0391C41.0781 49.8516 41.1172 49.7344 41.1172 49.6875C41.1172 49.6406 41.125 49.5938 41.1406 49.5469C41.2188 49.3125 41.2656 49.1484 41.2812 49.0547C41.2812 48.9609 41.2969 48.875 41.3281 48.7969C41.375 48.7656 41.4141 48.7422 41.4453 48.7266C41.4766 48.6953 41.5156 48.6641 41.5625 48.6328C41.7031 48.5234 41.7812 48.4531 41.7969 48.4219C41.9219 48.3594 42.0078 48.3125 42.0547 48.2812C42.1016 48.25 42.1328 48.2031 42.1484 48.1406C42.2109 48.125 42.2734 48.1094 42.3359 48.0938C42.3984 48.0625 42.4922 48.0547 42.6172 48.0703C42.9922 48.0703 43.2969 48.1641 43.5312 48.3516C43.7188 48.4141 43.8359 48.4688 43.8828 48.5156C43.9453 48.5469 43.9844 48.6016 44 48.6797C44.0938 48.7578 44.1562 48.8281 44.1875 48.8906C44.2031 49.0156 44.2188 49.0938 44.2344 49.125C44.25 49.1562 44.2656 49.1953 44.2812 49.2422C44.2969 49.2891 44.2969 49.3516 44.2812 49.4297C44.2812 49.5078 44.2969 49.5625 44.3281 49.5938C44.2969 49.6406 44.2812 49.6797 44.2812 49.7109C44.2969 49.7266 44.3125 49.7734 44.3281 49.8516C44.2969 49.8828 44.2656 49.9141 44.2344 49.9453C44.2031 49.9766 44.1953 50.0234 44.2109 50.0859C44.1328 50.1328 44.0703 50.1953 44.0234 50.2734C43.9453 50.2891 43.875 50.3125 43.8125 50.3438C43.75 50.375 43.6875 50.4062 43.625 50.4375C43.3906 50.5 43.25 50.5469 43.2031 50.5781C43.1562 50.6094 43.0859 50.6094 42.9922 50.5781C42.8672 50.5 42.7891 50.4453 42.7578 50.4141C42.7109 50.3047 42.7031 50.2109 42.7344 50.1328C42.7656 50.0078 42.7969 49.9453 42.8281 49.9453C42.8594 49.9297 42.8672 49.9062 42.8516 49.875C42.9297 49.875 42.9922 49.8594 43.0391 49.8281C43.0859 49.7969 43.1484 49.7734 43.2266 49.7578C43.3984 49.8359 43.5078 49.8594 43.5547 49.8281C43.6016 49.7812 43.6328 49.7188 43.6484 49.6406C43.6328 49.4844 43.625 49.3984 43.625 49.3828C43.6406 49.3672 43.6406 49.3438 43.625 49.3125C43.5781 49.2344 43.5391 49.1641 43.5078 49.1016C43.4766 49.0391 43.4453 48.9766 43.4141 48.9141C43.3359 48.9297 43.2734 48.9297 43.2266 48.9141C43.1797 48.8828 43.1172 48.8828 43.0391 48.9141C42.9141 48.8047 42.8047 48.75 42.7109 48.75C42.4297 48.7188 42.25 48.7656 42.1719 48.8906C42.0938 48.9375 42.0469 48.9844 42.0312 49.0312C42.0156 49.0781 41.9844 49.0938 41.9375 49.0781C41.8438 49.2656 41.8047 49.3906 41.8203 49.4531C41.7734 49.5938 41.7344 49.6875 41.7031 49.7344C41.6719 49.7656 41.6562 49.7969 41.6562 49.8281C41.6406 49.9688 41.6328 50.0391 41.6328 50.0391C41.6172 50.0391 41.6094 50.0547 41.6094 50.0859L41.6562 50.3438C41.7031 50.5312 41.75 50.6484 41.7969 50.6953C41.8281 50.7422 41.8594 50.7969 41.8906 50.8594C42 50.9844 42.0781 51.0547 42.125 51.0703C42.1562 51.0859 42.1875 51.125 42.2188 51.1875C42.4062 51.2812 42.5156 51.3359 42.5469 51.3516C42.5938 51.3672 42.6406 51.3906 42.6875 51.4219C42.8438 51.4219 42.9297 51.4141 42.9453 51.3984C42.9609 51.3828 42.9844 51.3828 43.0156 51.3984C43.1719 51.3984 43.2656 51.3906 43.2969 51.375C43.3281 51.375 43.3594 51.3672 43.3906 51.3516C43.5781 51.3516 43.6875 51.3359 43.7188 51.3047C43.7656 51.2891 43.8047 51.2969 43.8359 51.3281C44.0234 51.2812 44.1484 51.2188 44.2109 51.1406C44.2734 51.0781 44.3672 51.0312 44.4922 51C44.5234 50.9688 44.5469 50.9375 44.5625 50.9062C44.5938 50.8594 44.6406 50.8359 44.7031 50.8359C44.7812 50.7266 44.8281 50.6641 44.8438 50.6484C44.8594 50.6172 44.8906 50.5938 44.9375 50.5781C44.9688 50.5 44.9922 50.4297 45.0078 50.3672C45.0391 50.2891 45.0938 50.2344 45.1719 50.2031C45.2031 50.0781 45.25 50 45.3125 49.9688C45.3438 49.8125 45.3906 49.7109 45.4531 49.6641C45.4531 49.5391 45.4609 49.4688 45.4766 49.4531C45.4922 49.4375 45.5078 49.4141 45.5234 49.3828C45.5391 49.3359 45.5469 49.2891 45.5469 49.2422C45.5469 49.1953 45.5547 49.1484 45.5703 49.1016C45.6641 48.9609 45.7031 48.8672 45.6875 48.8203C45.6719 48.7734 45.6875 48.7344 45.7344 48.7031C45.7188 48.6406 45.7109 48.5938 45.7109 48.5625C45.7266 48.5312 45.7422 48.4844 45.7578 48.4219C45.7734 48.3281 45.7734 48.2578 45.7578 48.2109C45.7422 48.1641 45.75 48.1094 45.7812 48.0469C45.75 48.0156 45.7344 47.9766 45.7344 47.9297C45.75 47.8672 45.7578 47.8047 45.7578 47.7422C45.7578 47.6953 45.75 47.6484 45.7344 47.6016C45.7188 47.5391 45.7266 47.4766 45.7578 47.4141C45.7422 47.2734 45.7266 47.1484 45.7109 47.0391C45.7109 46.9297 45.6719 46.8438 45.5938 46.7812C45.6094 46.6094 45.6094 46.5078 45.5938 46.4766C45.5781 46.4453 45.5703 46.4141 45.5703 46.3828C45.5859 46.2422 45.5781 46.1484 45.5469 46.1016C45.5312 46.0391 45.5156 45.9766 45.5 45.9141C45.4688 45.7578 45.4453 45.6016 45.4297 45.4453C45.4297 45.2891 45.4062 45.1484 45.3594 45.0234C45.3281 44.8828 45.2969 44.7812 45.2656 44.7188C45.2344 44.6562 45.2344 44.6094 45.2656 44.5781C45.2031 44.3906 45.1719 44.2656 45.1719 44.2031C45.1875 44.1406 45.1797 44.0781 45.1484 44.0156C45.1328 43.9688 45.1172 43.9297 45.1016 43.8984C45.0859 43.8516 45.0703 43.7891 45.0547 43.7109C45.0391 43.6641 45.0312 43.6094 45.0312 43.5469C45.0312 43.4844 45.0234 43.4141 45.0078 43.3359C44.9609 43.1797 44.9375 43.0859 44.9375 43.0547C44.9531 43.0234 44.9609 42.9922 44.9609 42.9609C44.9297 42.8672 44.8906 42.7812 44.8438 42.7031C44.8125 42.625 44.7969 42.5312 44.7969 42.4219C44.7969 42.25 44.75 42.1172 44.6562 42.0234C44.6562 41.8984 44.6328 41.8125 44.5859 41.7656C44.5547 41.5781 44.5391 41.4766 44.5391 41.4609C44.5547 41.4297 44.5625 41.4062 44.5625 41.3906C44.5469 41.3281 44.5234 41.2734 44.4922 41.2266C44.4766 41.1797 44.4922 41.1172 44.5391 41.0391C44.4922 40.9766 44.4609 40.8984 44.4453 40.8047C44.4453 40.6953 44.4219 40.6172 44.375 40.5703C44.4062 40.4297 44.3984 40.3125 44.3516 40.2188C44.3047 40.125 44.2969 40.0156 44.3281 39.8906C44.2188 39.7344 44.1719 39.5312 44.1875 39.2812C44.2188 39.0312 44.1875 38.8359 44.0938 38.6953C44.1094 38.6172 44.1172 38.5547 44.1172 38.5078C44.1172 38.4609 44.1016 38.4062 44.0703 38.3438C44.1328 38.2344 44.1406 38.1328 44.0938 38.0391C44.0625 38.0078 44.0547 37.9609 44.0703 37.8984C44.0859 37.8359 44.0781 37.7656 44.0469 37.6875C44.0469 37.6406 44.0312 37.6016 44 37.5703C43.9844 37.5234 43.9766 37.4688 43.9766 37.4062C43.9922 37.2344 43.9844 37.1172 43.9531 37.0547C43.9531 37.0078 43.9531 36.9609 43.9531 36.9141C43.9688 36.8672 43.9609 36.8203 43.9297 36.7734C43.9609 36.6641 43.9844 36.5547 44 36.4453C44.0312 36.3359 44.0469 36.1953 44.0469 36.0234C44.0469 35.9609 44.0469 35.8906 44.0469 35.8125C44.0625 35.7188 44.0859 35.6484 44.1172 35.6016C44.0859 35.3984 44.0859 35.2578 44.1172 35.1797C44.1641 35.0859 44.2109 35 44.2578 34.9219C44.2266 34.7969 44.2266 34.6953 44.2578 34.6172C44.2891 34.5391 44.3203 34.4609 44.3516 34.3828C44.3828 34.3359 44.3984 34.2891 44.3984 34.2422C44.4141 34.1953 44.4375 34.1562 44.4688 34.125C44.5156 33.9688 44.5625 33.875 44.6094 33.8438C44.6094 33.7656 44.6328 33.7188 44.6797 33.7031C44.7422 33.6875 44.7656 33.6406 44.75 33.5625C44.8125 33.5781 44.8594 33.5625 44.8906 33.5156C44.9375 33.4688 44.9766 33.4297 45.0078 33.3984C45.1797 33.3047 45.2656 33.2578 45.2656 33.2578C45.3906 33.1953 45.4609 33.1719 45.4766 33.1875C45.4922 33.1875 45.5156 33.1797 45.5469 33.1641C45.7344 33.1016 45.8203 33.0703 45.8047 33.0703C45.8047 33.0547 45.8203 33.0469 45.8516 33.0469C45.9766 32.9688 46.0547 32.9375 46.0859 32.9531C46.1172 32.9688 46.1484 32.9766 46.1797 32.9766C46.2891 32.9609 46.3516 32.9609 46.3672 32.9766C46.3984 32.9766 46.4297 32.9766 46.4609 32.9766C46.5234 32.9922 46.5859 32.9922 46.6484 32.9766C46.7109 32.9609 46.7812 32.9609 46.8594 32.9766C46.8906 33.0234 46.9375 33.0547 47 33.0703C47.0625 33.0703 47.1172 33.0859 47.1641 33.1172C47.3516 33.2422 47.4688 33.3047 47.5156 33.3047C47.5625 33.3047 47.5938 33.3359 47.6094 33.3984C47.7812 33.4766 47.8828 33.5156 47.9141 33.5156C47.9453 33.5 47.9609 33.5234 47.9609 33.5859C48.0391 33.5859 48.0938 33.6094 48.125 33.6562C48.1719 33.7031 48.2344 33.7344 48.3125 33.75C48.3438 33.8125 48.375 33.8594 48.4062 33.8906C48.4531 33.9219 48.4922 33.9531 48.5234 33.9844C48.6641 34.125 48.7422 34.2188 48.7578 34.2656C48.7734 34.2969 48.8047 34.3125 48.8516 34.3125C48.8672 34.3906 48.8984 34.4531 48.9453 34.5C48.9922 34.5312 49.0312 34.5781 49.0625 34.6406C49.1719 34.7969 49.2344 34.8906 49.25 34.9219C49.2656 34.9375 49.2891 34.9688 49.3203 35.0156C49.3828 35.1406 49.4453 35.2656 49.5078 35.3906C49.5391 35.4375 49.5703 35.4922 49.6016 35.5547C49.6328 35.6016 49.6719 35.6406 49.7188 35.6719C49.75 35.7812 49.7812 35.875 49.8125 35.9531C49.8438 36.0156 49.8906 36.0703 49.9531 36.1172C49.9531 36.2578 49.9922 36.3516 50.0703 36.3984C50.0703 36.5391 50.1016 36.6406 50.1641 36.7031C50.2734 36.6562 50.3125 36.5469 50.2812 36.375C50.375 36.3125 50.4219 36.2109 50.4219 36.0703C50.625 35.8984 50.7344 35.7266 50.75 35.5547C50.7969 35.4922 50.8438 35.4453 50.8906 35.4141C50.9375 35.3672 50.9766 35.3047 51.0078 35.2266C51.0703 35.0703 51.1406 34.9844 51.2188 34.9688C51.2969 34.9375 51.3359 34.875 51.3359 34.7812C51.4766 34.7656 51.5703 34.6641 51.6172 34.4766C51.6953 34.4766 51.7344 34.4531 51.7344 34.4062C51.7344 34.3594 51.7734 34.3438 51.8516 34.3594C51.8984 34.2969 51.9375 34.2422 51.9688 34.1953C52.0156 34.1484 52.0781 34.1094 52.1562 34.0781C52.1875 34.0312 52.2266 33.9922 52.2734 33.9609C52.3203 33.9297 52.3672 33.8984 52.4141 33.8672C52.4922 33.7891 52.6094 33.7266 52.7656 33.6797C53.0156 33.5859 53.1953 33.5312 53.3047 33.5156C53.4297 33.4844 53.5469 33.4531 53.6562 33.4219C53.7969 33.375 53.875 33.3594 53.8906 33.375C53.9219 33.375 53.9531 33.375 53.9844 33.375C54.2188 33.3125 54.3594 33.2969 54.4062 33.3281C54.4688 33.3438 54.5391 33.3438 54.6172 33.3281C54.8047 33.4062 54.9141 33.4609 54.9453 33.4922C54.9922 33.5078 55.0312 33.5 55.0625 33.4688C55.2031 33.5625 55.2812 33.6172 55.2969 33.6328C55.3281 33.6484 55.3672 33.6484 55.4141 33.6328C55.6328 33.7891 55.7656 33.8906 55.8125 33.9375C55.9219 34.0938 55.9922 34.2109 56.0234 34.2891C56.0703 34.3672 56.1094 34.4531 56.1406 34.5469C56.2188 34.7344 56.2812 34.8438 56.3281 34.875C56.3906 34.9062 56.4141 34.9609 56.3984 35.0391C56.4766 35.1484 56.5234 35.2266 56.5391 35.2734C56.5703 35.3203 56.6016 35.3828 56.6328 35.4609C56.6797 35.5859 56.7031 35.6562 56.7031 35.6719C56.7031 35.6875 56.7109 35.7031 56.7266 35.7188C56.7734 35.8125 56.7969 35.8984 56.7969 35.9766C56.7969 36.0391 56.8047 36.1016 56.8203 36.1641C56.8516 36.2422 56.875 36.3203 56.8906 36.3984C56.9219 36.4609 56.9453 36.5312 56.9609 36.6094C56.9453 36.7031 56.9453 36.7891 56.9609 36.8672C56.9766 36.9453 56.9922 37.0078 57.0078 37.0547C56.9922 37.1953 56.9922 37.3359 57.0078 37.4766C57.0234 37.6016 57.0312 37.7031 57.0312 37.7812C57.0156 37.8906 57.0078 37.9531 57.0078 37.9688C57.0234 37.9844 57.0312 38.0078 57.0312 38.0391C57.0156 38.1641 56.9922 38.2812 56.9609 38.3906C56.9453 38.5 56.9531 38.5859 56.9844 38.6484C56.9219 38.7734 56.8984 38.8438 56.9141 38.8594C56.9453 38.875 56.9531 38.8984 56.9375 38.9297C56.9062 39.1172 56.8672 39.25 56.8203 39.3281C56.7891 39.3906 56.7891 39.4375 56.8203 39.4688C56.7578 39.5938 56.7031 39.7266 56.6562 39.8672C56.625 39.9922 56.5938 40.125 56.5625 40.2656C56.5469 40.3125 56.5391 40.3672 56.5391 40.4297C56.5391 40.4766 56.5156 40.5234 56.4688 40.5703C56.4375 40.6953 56.4141 40.7969 56.3984 40.875C56.3984 40.9531 56.3828 41.0156 56.3516 41.0625C56.3203 41.3125 56.2578 41.5078 56.1641 41.6484C56.1172 41.8047 56.0938 41.9531 56.0938 42.0938C55.9844 42.25 55.9219 42.3359 55.9062 42.3516C55.9062 42.3672 55.8906 42.3906 55.8594 42.4219C55.8594 42.5781 55.8359 42.6797 55.7891 42.7266C55.7734 42.8047 55.75 42.8828 55.7188 42.9609C55.7031 43.0234 55.6953 43.0938 55.6953 43.1719C55.6328 43.2969 55.5859 43.3828 55.5547 43.4297C55.5391 43.4766 55.5469 43.5312 55.5781 43.5938C55.4062 43.8594 55.3203 44.0859 55.3203 44.2734C55.3203 44.4453 55.2812 44.5938 55.2031 44.7188C55.2031 44.8281 55.1953 44.8906 55.1797 44.9062C55.1797 44.9219 55.1641 44.9453 55.1328 44.9766C55.1641 45.0234 55.1641 45.0703 55.1328 45.1172C55.1016 45.1484 55.0859 45.1875 55.0859 45.2344C55.0391 45.4219 55.0156 45.5391 55.0156 45.5859C55.0312 45.6172 55.0312 45.6484 55.0156 45.6797C55.0156 45.7734 55 45.8828 54.9688 46.0078C54.8906 46.2109 54.8672 46.3828 54.8984 46.5234C54.8828 46.5547 54.8594 46.6016 54.8281 46.6641C54.8125 46.7266 54.8203 46.7812 54.8516 46.8281C54.7734 46.9219 54.7422 46.9766 54.7578 46.9922C54.7891 47.0078 54.7969 47.0391 54.7812 47.0859C54.7344 47.2109 54.7031 47.3516 54.6875 47.5078C54.6875 47.6641 54.6484 47.8047 54.5703 47.9297C54.5391 48.1328 54.5156 48.2812 54.5 48.375C54.5 48.4531 54.4922 48.5469 54.4766 48.6562C54.4609 48.7969 54.4453 48.875 54.4297 48.8906C54.4141 48.9062 54.3984 48.9297 54.3828 48.9609C54.3672 49.0547 54.3594 49.1484 54.3594 49.2422C54.375 49.3359 54.3828 49.4297 54.3828 49.5234C54.3828 49.7266 54.3828 49.8438 54.3828 49.875C54.3984 49.9062 54.3906 49.9453 54.3594 49.9922C54.4062 50.1016 54.4453 50.2422 54.4766 50.4141C54.4766 50.4766 54.4922 50.5234 54.5234 50.5547C54.5703 50.5859 54.5859 50.6406 54.5703 50.7188C54.7266 50.8906 54.8438 51.0078 54.9219 51.0703C55.0469 51.1172 55.1094 51.1484 55.1094 51.1641C55.1094 51.1953 55.125 51.2188 55.1562 51.2344C55.2812 51.25 55.3672 51.25 55.4141 51.2344C55.4609 51.2344 55.5078 51.2344 55.5547 51.2344C55.5859 51.2344 55.625 51.2344 55.6719 51.2344C55.7344 51.25 55.7969 51.25 55.8594 51.2344C55.9375 51.1406 55.9844 51.0938 56 51.0938C56.0156 51.0938 56.0391 51.0859 56.0703 51.0703C56.2422 50.9609 56.3359 50.8906 56.3516 50.8594C56.3672 50.8125 56.4062 50.7812 56.4688 50.7656C56.4844 50.6719 56.5469 50.5703 56.6562 50.4609C56.7656 50.3203 56.8359 50.2109 56.8672 50.1328C56.9141 50.0391 56.9062 49.9531 56.8438 49.875C56.7969 49.7031 56.7656 49.6016 56.75 49.5703C56.7344 49.5234 56.7188 49.4688 56.7031 49.4062C56.6406 49.375 56.5938 49.3438 56.5625 49.3125C56.5312 49.2812 56.4922 49.25 56.4453 49.2188C56.3984 49.2344 56.3516 49.2422 56.3047 49.2422C56.2734 49.2422 56.2344 49.2656 56.1875 49.3125C56.0938 49.4688 56.0312 49.5469 56 49.5469C55.9844 49.5469 55.9766 49.5625 55.9766 49.5938C55.9766 49.75 55.9844 49.8594 56 49.9219C56.0156 49.9688 56.0469 50.0156 56.0938 50.0625C56.1406 50.1094 56.1484 50.1641 56.1172 50.2266C56.0703 50.3359 56.0234 50.3984 55.9766 50.4141C55.9453 50.4141 55.9375 50.4375 55.9531 50.4844C55.875 50.5156 55.8125 50.5312 55.7656 50.5312C55.7188 50.5312 55.6641 50.5078 55.6016 50.4609C55.4922 50.4141 55.4297 50.3828 55.4141 50.3672C55.3984 50.3359 55.375 50.3203 55.3438 50.3203C55.3438 50.2734 55.3359 50.2266 55.3203 50.1797C55.3203 50.1328 55.3203 50.0859 55.3203 50.0391C55.2891 49.8828 55.2734 49.7969 55.2734 49.7812C55.2891 49.7656 55.2969 49.7422 55.2969 49.7109C55.2812 49.5703 55.2812 49.4844 55.2969 49.4531C55.3281 49.4062 55.3516 49.3672 55.3672 49.3359C55.3828 49.3047 55.3984 49.2656 55.4141 49.2188C55.4297 49.1719 55.4297 49.125 55.4141 49.0781C55.5703 48.9844 55.6484 48.9297 55.6484 48.9141C55.7891 48.7734 55.8594 48.7031 55.8594 48.7031C56 48.6094 56.0781 48.5703 56.0938 48.5859C56.1094 48.5859 56.1328 48.5859 56.1641 48.5859C56.3672 48.5703 56.5 48.5781 56.5625 48.6094C56.625 48.6406 56.7109 48.6484 56.8203 48.6328L57.0312 48.8438C57.0938 48.8906 57.1406 48.9453 57.1719 49.0078C57.2188 49.0703 57.2656 49.1406 57.3125 49.2188C57.2969 49.2969 57.3047 49.3828 57.3359 49.4766C57.3828 49.5547 57.4141 49.6328 57.4297 49.7109V49.9922C57.4453 50.0703 57.4453 50.125 57.4297 50.1562C57.4141 50.1719 57.3984 50.2031 57.3828 50.25C57.3359 50.3906 57.2969 50.4688 57.2656 50.4844C57.2344 50.4844 57.2344 50.5156 57.2656 50.5781C57.2031 50.7031 57.1562 50.7812 57.125 50.8125C57.1094 50.8438 57.0859 50.8828 57.0547 50.9297C57.0234 50.9766 56.9844 51.0312 56.9375 51.0938C56.8906 51.1562 56.8281 51.1953 56.75 51.2109C56.7344 51.2734 56.7031 51.3125 56.6562 51.3281C56.6094 51.3594 56.5781 51.4062 56.5625 51.4688C56.3594 51.5625 56.1875 51.6797 56.0469 51.8203C55.9219 51.8203 55.8359 51.8281 55.7891 51.8438C55.7422 51.8594 55.6953 51.875 55.6484 51.8906C55.6016 51.9062 55.5391 51.9141 55.4609 51.9141C55.3828 51.8984 55.3047 51.8906 55.2266 51.8906C55.1641 51.9062 55.1016 51.8984 55.0391 51.8672C54.8828 51.8359 54.7812 51.8047 54.7344 51.7734C54.6875 51.7578 54.6328 51.7344 54.5703 51.7031C54.4609 51.625 54.3906 51.5625 54.3594 51.5156C54.2812 51.4531 54.2422 51.3906 54.2422 51.3281C54.2422 51.2812 54.2109 51.2734 54.1484 51.3047C54.1016 51.1484 54.0234 51.0469 53.9141 51C53.9141 50.9375 53.8906 50.8828 53.8438 50.8359C53.7969 50.7891 53.7734 50.7344 53.7734 50.6719C53.7891 50.5938 53.7891 50.5391 53.7734 50.5078C53.7578 50.4766 53.75 50.4453 53.75 50.4141C53.75 50.2891 53.7422 50.2109 53.7266 50.1797C53.7109 50.1484 53.7109 50.1172 53.7266 50.0859C53.6953 49.9453 53.6797 49.8359 53.6797 49.7578C53.6953 49.6797 53.7031 49.6016 53.7031 49.5234C53.6719 49.3984 53.6641 49.3281 53.6797 49.3125C53.6953 49.2812 53.7031 49.25 53.7031 49.2188C53.7188 49.1562 53.7266 49.1016 53.7266 49.0547C53.7266 49.0078 53.75 48.9688 53.7969 48.9375C53.7656 48.8438 53.7578 48.7812 53.7734 48.75C53.8047 48.7188 53.8203 48.6875 53.8203 48.6562C53.8047 48.5469 53.8047 48.4688 53.8203 48.4219C53.8359 48.3594 53.8359 48.2891 53.8203 48.2109C53.8359 48.1641 53.8516 48.125 53.8672 48.0938C53.8984 48.0625 53.9297 48.0234 53.9609 47.9766C53.9453 47.8984 53.9375 47.8047 53.9375 47.6953C53.9531 47.5859 53.9922 47.5 54.0547 47.4375C54.0234 47.2812 54.0156 47.1797 54.0312 47.1328C54.0625 47.0859 54.0547 47.0469 54.0078 47.0156C54.0391 46.8906 54.0625 46.8125 54.0781 46.7812C54.1094 46.7344 54.125 46.6953 54.125 46.6641C54.1562 46.4922 54.1562 46.3906 54.125 46.3594C54.1562 46.3281 54.1719 46.2891 54.1719 46.2422C54.1875 46.1797 54.2109 46.1328 54.2422 46.1016C54.2578 45.9141 54.2812 45.8047 54.3125 45.7734C54.3438 45.7266 54.375 45.6875 54.4062 45.6562C54.3594 45.625 54.3438 45.5703 54.3594 45.4922C54.375 45.3984 54.3672 45.3281 54.3359 45.2812C54.3672 45.0469 54.4062 44.8984 54.4531 44.8359C54.5 44.7578 54.5078 44.6797 54.4766 44.6016C54.5703 44.4609 54.6406 44.3516 54.6875 44.2734C54.7344 44.1953 54.7422 44.125 54.7109 44.0625C54.7578 43.9688 54.7812 43.8672 54.7812 43.7578L54.8984 43.4062C54.9297 43.2344 54.9375 43.1406 54.9219 43.125C54.9219 43.1094 54.9375 43.0859 54.9688 43.0547C55.0312 42.8984 55.0703 42.8125 55.0859 42.7969C55.1172 42.7812 55.1406 42.7578 55.1562 42.7266C55.1562 42.6641 55.1562 42.6172 55.1562 42.5859C55.1719 42.5391 55.1797 42.5 55.1797 42.4688C55.2266 42.3438 55.2812 42.2109 55.3438 42.0703C55.4219 41.9297 55.4844 41.7891 55.5312 41.6484C55.5938 41.4453 55.625 41.2969 55.625 41.2031C55.7031 41.0781 55.7344 40.9844 55.7188 40.9219C55.7188 40.8594 55.7344 40.7891 55.7656 40.7109C55.8125 40.5859 55.8281 40.5156 55.8125 40.5C55.8125 40.4688 55.8203 40.4453 55.8359 40.4297C55.8828 40.2734 55.9141 40.1875 55.9297 40.1719L56.0469 39.8672L56.1875 39.6094C56.1562 39.5625 56.1484 39.5156 56.1641 39.4688C56.1953 39.4062 56.2109 39.3516 56.2109 39.3047C56.2266 39.2109 56.2344 39.125 56.2344 39.0469C56.25 38.9531 56.25 38.8672 56.2344 38.7891C56.2656 38.7109 56.2734 38.6562 56.2578 38.625C56.2578 38.5938 56.25 38.5625 56.2344 38.5312C56.2656 38.3281 56.2891 38.2031 56.3047 38.1562C56.3359 38.0938 56.3516 38.0312 56.3516 37.9688C56.3359 37.75 56.3281 37.5469 56.3281 37.3594C56.3281 37.1719 56.3203 37.0078 56.3047 36.8672C56.3047 36.7734 56.2969 36.7031 56.2812 36.6562C56.2656 36.6094 56.25 36.5469 56.2344 36.4688C56.1562 36.3594 56.1172 36.2891 56.1172 36.2578C56.1328 36.2109 56.1406 36.1641 56.1406 36.1172C56.0781 36.0078 56.0469 35.9297 56.0469 35.8828C56.0625 35.8359 56.0469 35.7969 56 35.7656C56.0312 35.7031 56.0234 35.6328 55.9766 35.5547C55.9297 35.4766 55.875 35.4219 55.8125 35.3906C55.7812 35.25 55.7578 35.1641 55.7422 35.1328C55.7109 35.0703 55.6719 35.0156 55.625 34.9688C55.5781 34.9062 55.5312 34.8359 55.4844 34.7578C55.3906 34.5859 55.3359 34.4844 55.3203 34.4531C55.3203 34.4219 55.3125 34.3906 55.2969 34.3594C55.1094 34.25 54.9922 34.1797 54.9453 34.1484C54.8984 34.1016 54.8359 34.0703 54.7578 34.0547C54.6641 34.0234 54.5781 34.0078 54.5 34.0078C54.4375 34.0078 54.3672 34 54.2891 33.9844C54.1641 33.9531 54.0859 33.9531 54.0547 33.9844C54.0234 34 53.9922 34.0078 53.9609 34.0078C53.8516 33.9922 53.7656 34 53.7031 34.0312C53.6406 34.0469 53.5859 34.0547 53.5391 34.0547C53.5078 34.0391 53.4766 34.0391 53.4453 34.0547C53.2734 34.1172 53.1406 34.1719 53.0469 34.2188C52.9531 34.2656 52.8906 34.3047 52.8594 34.3359C52.8281 34.3516 52.7891 34.3672 52.7422 34.3828C52.7109 34.3984 52.6719 34.4219 52.625 34.4531C52.5156 34.5312 52.4531 34.5781 52.4375 34.5938C52.4219 34.6094 52.3984 34.625 52.3672 34.6406C52.2266 34.7188 52.1406 34.7891 52.1094 34.8516C52 34.9766 51.9375 35.0625 51.9219 35.1094C51.9219 35.1406 51.8906 35.1484 51.8281 35.1328C51.7969 35.2422 51.7422 35.3281 51.6641 35.3906C51.5859 35.4531 51.5391 35.5469 51.5234 35.6719C51.3828 35.8281 51.3047 35.9141 51.2891 35.9297C51.2891 35.9297 51.2891 35.9531 51.2891 36C51.2109 36.0312 51.1562 36.0859 51.125 36.1641C51.0938 36.2422 51.0391 36.3047 50.9609 36.3516C50.9922 36.4766 50.9688 36.5625 50.8906 36.6094C50.8281 36.6562 50.8125 36.7188 50.8438 36.7969C50.7969 36.9688 50.7422 37.0781 50.6797 37.125C50.6172 37.1562 50.5938 37.2266 50.6094 37.3359C50.5781 37.5391 50.5469 37.6719 50.5156 37.7344C50.5469 37.7656 50.5625 37.8203 50.5625 37.8984C50.5781 37.9609 50.5703 38.0234 50.5391 38.0859C50.5859 38.1953 50.6172 38.2734 50.6328 38.3203C50.6484 38.3672 50.6719 38.4062 50.7031 38.4375C50.7188 38.5 50.7188 38.5625 50.7031 38.625C50.7031 38.6719 50.7109 38.7188 50.7266 38.7656C50.7578 38.9531 50.7812 39.0547 50.7969 39.0703C50.7812 39.1641 50.7812 39.2422 50.7969 39.3047C50.8281 39.3516 50.8438 39.4062 50.8438 39.4688C50.8438 39.5312 50.8359 39.5859 50.8203 39.6328C50.8203 39.6641 50.8281 39.7031 50.8438 39.75L50.8906 40.0781C50.9531 40.2188 50.9766 40.3203 50.9609 40.3828C50.9609 40.4453 50.9688 40.5156 50.9844 40.5938C51.0156 40.7344 51.0234 40.8359 51.0078 40.8984C51.0078 40.9453 51.0312 40.9922 51.0781 41.0391C51.0469 41.1797 51.0391 41.2812 51.0547 41.3438C51.0703 41.3906 51.0781 41.4531 51.0781 41.5312C51.0625 41.7188 51.0547 41.8281 51.0547 41.8594C51.0703 41.875 51.0781 41.8984 51.0781 41.9297C51.0625 42.1016 51.0547 42.1875 51.0547 42.1875C51.0859 42.375 51.0938 42.4844 51.0781 42.5156C51.0781 42.5312 51.0781 42.5547 51.0781 42.5859C51.0781 42.6484 51.0859 42.7031 51.1016 42.75C51.1172 42.7812 51.0938 42.8203 51.0312 42.8672C51.0625 42.9453 51.0703 43.0547 51.0547 43.1953C51.0547 43.3203 51.0391 43.4453 51.0078 43.5703C50.9609 43.7109 50.9375 43.7891 50.9375 43.8047C50.9531 43.8047 50.9531 43.8203 50.9375 43.8516C50.8906 43.9609 50.8594 44.0469 50.8438 44.1094C50.8438 44.1719 50.8594 44.2344 50.8906 44.2969C50.8125 44.4375 50.7734 44.5391 50.7734 44.6016C50.7891 44.6484 50.7969 44.6875 50.7969 44.7188C50.7344 44.8438 50.6875 44.9141 50.6562 44.9297C50.625 44.9297 50.625 44.9453 50.6562 44.9766C50.4531 45.0703 50.3281 45.1562 50.2812 45.2344C50.2344 45.2969 50.1797 45.3438 50.1172 45.375C50.0859 45.3906 50.0391 45.3984 49.9766 45.3984C49.9297 45.3828 49.8906 45.375 49.8594 45.375C49.7656 45.3906 49.6953 45.3906 49.6484 45.375C49.6172 45.3438 49.5781 45.3359 49.5312 45.3516C49.5 45.2734 49.4531 45.2266 49.3906 45.2109C49.3438 45.1797 49.2969 45.1406 49.25 45.0938C49.2188 45.0625 49.1875 45.0312 49.1562 45C49.1406 44.9531 49.1016 44.9141 49.0391 44.8828C49.0391 44.7578 49.0078 44.6641 48.9453 44.6016C48.9453 44.4609 48.9375 44.3672 48.9219 44.3203C48.9062 44.2578 48.8906 44.1797 48.875 44.0859C48.8594 43.9922 48.8516 43.9141 48.8516 43.8516C48.8516 43.7891 48.8516 43.7422 48.8516 43.7109C48.8359 43.6797 48.8281 43.6406 48.8281 43.5938C48.8438 43.5469 48.8281 43.5 48.7812 43.4531C48.8125 43.3906 48.8203 43.3281 48.8047 43.2656C48.7891 43.2031 48.7891 43.1406 48.8047 43.0781C48.8047 43.0156 48.8047 42.9609 48.8047 42.9141C48.8203 42.8672 48.8281 42.8203 48.8281 42.7734C48.8125 42.6172 48.7969 42.5391 48.7812 42.5391C48.7812 42.5391 48.7812 42.5312 48.7812 42.5156C48.8125 42.3438 48.8203 42.2422 48.8047 42.2109C48.8047 42.1797 48.8047 42.1484 48.8047 42.1172C48.8203 41.9141 48.8359 41.7656 48.8516 41.6719C48.8672 41.5781 48.8906 41.4922 48.9219 41.4141C48.9062 41.2578 48.8906 41.1797 48.875 41.1797C48.875 41.1797 48.875 41.1641 48.875 41.1328C48.9219 40.9453 48.9766 40.8203 49.0391 40.7578L49.0859 40.5703ZM49.9766 39.2344C49.9141 39.3594 49.8594 39.5078 49.8125 39.6797C49.7656 39.8359 49.75 39.9766 49.7656 40.1016C49.7031 40.1328 49.6719 40.1719 49.6719 40.2188C49.6875 40.2656 49.6953 40.3203 49.6953 40.3828C49.6484 40.5391 49.625 40.625 49.625 40.6406C49.6406 40.6562 49.6484 40.6797 49.6484 40.7109C49.6172 40.8828 49.5859 40.9844 49.5547 41.0156C49.5234 41.0781 49.5156 41.1328 49.5312 41.1797C49.5469 41.2266 49.5547 41.2656 49.5547 41.2969C49.5234 41.3125 49.5078 41.3984 49.5078 41.5547C49.4453 41.6328 49.4219 41.7266 49.4375 41.8359C49.4531 41.9453 49.4531 42.0469 49.4375 42.1406C49.4062 42.4062 49.375 42.5625 49.3438 42.6094C49.3594 42.7344 49.375 42.8047 49.3906 42.8203C49.4062 42.8359 49.3984 42.8594 49.3672 42.8906C49.4141 43.0625 49.4297 43.2344 49.4141 43.4062C49.4141 43.5781 49.4297 43.7734 49.4609 43.9922C49.5078 44.0703 49.5391 44.1641 49.5547 44.2734C49.5703 44.3828 49.5938 44.4922 49.625 44.6016C49.6875 44.6328 49.7344 44.6641 49.7656 44.6953C49.8125 44.7266 49.875 44.75 49.9531 44.7656C50.0625 44.6562 50.1172 44.5859 50.1172 44.5547C50.1328 44.5234 50.1562 44.4922 50.1875 44.4609C50.1875 44.3516 50.2031 44.2734 50.2344 44.2266C50.2656 44.1641 50.2578 44.1016 50.2109 44.0391C50.2734 43.8828 50.3125 43.7734 50.3281 43.7109C50.3438 43.6484 50.3594 43.6016 50.375 43.5703C50.4062 43.3672 50.4141 43.2344 50.3984 43.1719C50.3828 43.0938 50.3828 43.0234 50.3984 42.9609C50.4297 42.8047 50.4375 42.7109 50.4219 42.6797C50.4062 42.6328 50.3984 42.5938 50.3984 42.5625C50.3984 42.4844 50.3984 42.4219 50.3984 42.375C50.4141 42.3125 50.4219 42.25 50.4219 42.1875C50.3906 42.0625 50.375 41.9922 50.375 41.9766C50.3906 41.9453 50.3984 41.9219 50.3984 41.9062C50.3984 41.7344 50.3906 41.6328 50.375 41.6016C50.3594 41.5703 50.3516 41.5312 50.3516 41.4844C50.3516 41.2344 50.3438 41.0391 50.3281 40.8984C50.3125 40.7422 50.2812 40.6172 50.2344 40.5234C50.2656 40.3672 50.2734 40.2891 50.2578 40.2891C50.2422 40.2734 50.2344 40.25 50.2344 40.2188C50.25 40 50.2266 39.7812 50.1641 39.5625C50.1172 39.3281 50.0938 39.1172 50.0938 38.9297C50.0312 38.9766 49.9844 39.0312 49.9531 39.0938C49.9375 39.1562 49.9453 39.2031 49.9766 39.2344Z" fill="black"/>
<line x1="50" y1="5" x2="50" y2="15" stroke="black" stroke-width="2"/>
<line x1="79" y1="49" x2="89" y2="49" stroke="black" stroke-width="2"/>
<line x1="77.2929" y1="23.2929" x2="84.364" y2="16.2218" stroke="black" stroke-width="2"/>
<line x1="23.2929" y1="23.7071" x2="16.2218" y2="16.636" stroke="black" stroke-width="2"/>
<line x1="11" y1="49" x2="21" y2="49" stroke="black" stroke-width="2"/>
</svg>
